<svg xmlns="http://www.w3.org/2000/svg" width="234" height="212" viewBox="0 0 234 212">
  <g fill="none" stroke="#4A4A4A" stroke-width="7" stroke-linecap="round" stroke-linejoin="round">
    <line x1="117" y1="35" x2="37" y2="70"/>
    <line x1="117" y1="35" x2="195" y2="70"/>
    <line x1="117" y1="35" x2="117" y2="106"/>
    <line x1="37" y1="70" x2="117" y2="106"/>
    <line x1="195" y1="70" x2="117" y2="106"/>
    <line x1="37" y1="70" x2="37" y2="141"/>
    <line x1="195" y1="70" x2="195" y2="141"/>
    <line x1="37" y1="141" x2="117" y2="106"/>
    <line x1="195" y1="141" x2="117" y2="106"/>
    <line x1="37" y1="141" x2="117" y2="177"/>
    <line x1="195" y1="141" x2="117" y2="177"/>
    <line x1="117" y1="106" x2="117" y2="177"/>
  </g>
  <g fill="#FFFFFF" stroke="#4A4A4A" stroke-width="7">
    <circle cx="117" cy="35" r="18"/>
    <circle cx="37" cy="70" r="18"/>
    <circle cx="195" cy="70" r="18"/>
    <circle cx="117" cy="106" r="18"/>
    <circle cx="37" cy="141" r="18"/>
    <circle cx="195" cy="141" r="18"/>
    <circle cx="117" cy="177" r="18"/>
  </g>
</svg>
